<svg xmlns="http://www.w3.org/2000/svg" width="426" height="100" viewBox="0 0 426 100" fill="none"><path d="M13.6896 39.9297C13.4096 41.0197 13.2196 42.1897 13.1396 43.4097C13.1596 42.1897 13.3396 41.0197 13.6896 39.9297Z" fill="#FFCB01"></path><path d="M37.39 43.54V43.73C37.33 42.5 37.1699 41.34 36.9399 40.25C37.2399 41.3 37.39 42.4 37.39 43.54Z" fill="#FFCB01"></path><path d="M145.77 17.4297V30.5997H145.18C135.99 30.5997 131.29 34.8897 131.29 44.3797V75.4097H118.19L118.21 44.6497C118.21 35.1797 123.13 26.8397 130.59 21.9697C134.89 19.1497 140.03 17.4897 145.57 17.4297H145.77Z" fill="#FFCB01"></path><path d="M180.92 17.3798H172.12L172.14 0.00976562H159.06V17.3798H150.26V30.3998H159.06L159.03 75.3798H172.14L172.12 30.3998H180.92V17.3798Z" fill="#FFCB01"></path><path d="M185.41 0.0100098H198.49V25.58C201.59 19.79 208.18 17.29 214.67 17.39C223.16 17.39 228.45 20.29 231.65 25.08C234.95 29.87 235.95 36.37 235.95 43.76V75.39H222.89L222.87 44.36C222.87 40.16 222.17 36.57 220.37 33.97C218.47 31.37 215.48 29.67 210.88 29.67C205.69 29.67 202.59 31.77 200.79 34.46C198.99 37.16 198.49 40.45 198.49 43.25V75.38H185.39L185.41 0V0.0100098Z" fill="#FFCB01"></path><path d="M295.49 0.0292969H308.57V11.7193H295.49V0.0292969ZM295.48 17.3893H308.56L308.58 75.3893H295.5L295.48 17.3893Z" fill="#FFCB01"></path><path d="M381.41 50.6106C382.01 59.4006 389.8 64.2906 397.29 64.1906C403.68 64.1906 407.98 61.2906 410.47 56.8006H423.95C421.35 62.8906 417.46 67.4906 412.86 70.5806C408.27 73.7806 402.87 75.3706 397.18 75.3706C380.3 75.3706 368.22 61.6906 368.22 46.4106C368.22 31.1306 380.41 17.1406 396.99 17.1406C405.18 17.1406 412.37 20.2406 417.47 25.5306C424.16 32.4206 426.66 41.0106 425.56 50.6006H381.41V50.6106ZM412.67 40.6206C412.17 35.4306 406.68 28.1406 397.09 28.2306C387.4 28.2306 382.11 35.2206 381.61 40.6206H412.67Z" fill="#FFCB01"></path><path d="M50.53 42.6494V75.3794H37.43L37.45 44.4194C37.45 43.7494 37.43 43.0794 37.39 42.4394V42.2494C37.39 41.1094 37.23 39.9994 36.94 38.9594C35.5 33.8694 30.82 30.1394 25.27 30.1394C19.72 30.1394 15.27 33.6994 13.72 38.6094C13.7 38.6094 13.7 38.6294 13.7 38.6394C13.36 39.7294 13.17 40.8994 13.15 42.1194V42.2394C13.1 42.7894 13.09 43.3494 13.09 43.9094L13.07 75.3694H0V42.6394C0 33.4494 4.92 25.3894 12.25 20.9594C13.64 20.1294 15.11 19.4294 16.64 18.8794C17.55 18.5494 18.48 18.2694 19.43 18.0494C21.3 17.5994 23.25 17.3594 25.27 17.3594C27.29 17.3594 29.23 17.5894 31.11 18.0494C42.25 20.6694 50.54 30.6894 50.54 42.6294L50.53 42.6494Z" fill="#FFCB01"></path><path d="M84.3698 17.3909C65.2998 17.3909 55.0098 32.2809 55.0098 46.2609V46.3509C55.0098 60.5409 65.2998 75.4309 84.3698 75.4309C84.8798 75.4309 85.3998 75.4109 85.9198 75.3809C96.6398 74.9309 104.41 69.6709 108.97 62.5709H108.99C112.11 57.7009 113.73 51.9709 113.73 46.3509C113.73 32.2709 103.44 17.3809 84.3698 17.3809V17.3909ZM84.3698 63.1309C75.3798 63.1309 68.0898 56.0409 68.0898 46.4609V46.3509C68.0898 36.6709 75.3798 29.5709 84.3698 29.5709C93.3598 29.5709 100.55 36.6709 100.55 46.3509C100.55 56.0309 93.3598 63.1309 84.3698 63.1309Z" fill="#FFCB01"></path><path d="M110.54 65.6914L89.67 99.5614H74.5L87.47 78.5114C98.19 78.0614 105.96 72.8014 110.52 65.7014H110.54V65.6914Z" fill="#FFCB01"></path><path d="M290.97 42.6198V75.3498H277.87L277.89 44.3898C277.89 43.7198 277.87 43.0498 277.83 42.4098V42.2198C277.83 41.0798 277.67 39.9698 277.38 38.9298C275.94 33.8398 271.26 30.1098 265.71 30.1098C260.16 30.1098 255.71 33.6698 254.16 38.5798C254.14 38.5798 254.14 38.5998 254.14 38.6098C253.8 39.6998 253.61 40.8698 253.59 42.0898V42.2098C253.54 42.7598 253.53 43.3198 253.53 43.8798L253.51 75.3798H240.44V42.6198C240.44 33.4298 245.36 25.3698 252.69 20.9398C254.08 20.1098 255.55 19.4098 257.08 18.8598C257.99 18.5298 258.92 18.2498 259.87 18.0298C261.74 17.5798 263.69 17.3398 265.71 17.3398C267.73 17.3398 269.67 17.5698 271.55 18.0298C282.69 20.6498 290.98 30.6698 290.98 42.6098L290.97 42.6198Z" fill="#FFCB01"></path><path d="M363.64 42.6494V75.3794H350.54L350.56 44.4194C350.56 43.7494 350.54 43.0794 350.5 42.4394V42.2494C350.5 41.1094 350.34 39.9994 350.05 38.9594C348.61 33.8694 343.93 30.1394 338.38 30.1394C332.83 30.1394 328.38 33.6994 326.83 38.6094C326.81 38.6094 326.81 38.6294 326.81 38.6394C326.47 39.7294 326.28 40.8994 326.26 42.1194V42.2394C326.21 42.7894 326.2 43.3494 326.2 43.9094L326.18 75.3694H313.11V42.6394C313.11 33.4494 318.03 25.3894 325.36 20.9594C326.75 20.1294 328.22 19.4294 329.75 18.8794C330.66 18.5494 331.59 18.2694 332.54 18.0494C334.41 17.5994 336.36 17.3594 338.38 17.3594C340.4 17.3594 342.34 17.5894 344.22 18.0494C355.36 20.6694 363.65 30.6894 363.65 42.6294L363.64 42.6494Z" fill="#FFCB01"></path><path d="M129.389 95.2188V86.4915H132.833C133.494 86.4915 134.058 86.6179 134.524 86.8707C134.99 87.1207 135.345 87.4687 135.59 87.9148C135.837 88.358 135.96 88.8693 135.96 89.4489C135.96 90.0284 135.835 90.5398 135.585 90.983C135.335 91.4261 134.973 91.7713 134.499 92.0185C134.027 92.2656 133.456 92.3892 132.786 92.3892H130.591V90.9105H132.487C132.843 90.9105 133.135 90.8494 133.365 90.7273C133.598 90.6023 133.771 90.4304 133.885 90.2116C134.002 89.9901 134.06 89.7358 134.06 89.4489C134.06 89.1591 134.002 88.9062 133.885 88.6903C133.771 88.4716 133.598 88.3026 133.365 88.1832C133.132 88.0611 132.837 88 132.479 88H131.235V95.2188H129.389ZM150.959 95.2188V86.4915H154.402C155.061 86.4915 155.624 86.6094 156.09 86.8452C156.558 87.0781 156.915 87.4091 157.159 87.8381C157.406 88.2642 157.53 88.7656 157.53 89.3423C157.53 89.9219 157.405 90.4205 157.155 90.8381C156.905 91.2528 156.543 91.571 156.068 91.7926C155.597 92.0142 155.026 92.125 154.355 92.125H152.05V90.642H154.057C154.409 90.642 154.702 90.5937 154.935 90.4972C155.168 90.4006 155.341 90.2557 155.455 90.0625C155.571 89.8693 155.629 89.6293 155.629 89.3423C155.629 89.0526 155.571 88.8082 155.455 88.6094C155.341 88.4105 155.166 88.2599 154.931 88.1577C154.698 88.0526 154.404 88 154.048 88H152.804V95.2188H150.959ZM155.672 91.2472L157.841 95.2188H155.804L153.682 91.2472H155.672ZM174.479 86.4915V95.2188H172.634V86.4915H174.479ZM191.374 86.4915L193.483 93.1222H193.564L195.678 86.4915H197.723L194.715 95.2188H192.337L189.324 86.4915H191.374ZM212.918 95.2188H210.941L213.953 86.4915H216.331L219.34 95.2188H217.362L215.176 88.4858H215.108L212.918 95.2188ZM212.794 91.7884H217.465V93.2287H212.794V91.7884ZM232.791 88.0128V86.4915H239.959V88.0128H237.287V95.2188H235.463V88.0128H232.791ZM254.939 95.2188V86.4915H260.82V88.0128H256.785V90.0923H260.518V91.6136H256.785V93.6974H260.837V95.2188H254.939ZM292.664 95.2188V86.4915H294.51V93.6974H298.251V95.2188H292.664ZM315.118 86.4915V95.2188H313.273V86.4915H315.118ZM330.436 86.4915H332.712L335.115 92.3551H335.218L337.621 86.4915H339.896V95.2188H338.107V89.5384H338.034L335.776 95.1761H334.557L332.298 89.517H332.226V95.2188H330.436V86.4915ZM357.062 86.4915V95.2188H355.217V86.4915H357.062ZM372.048 88.0128V86.4915H379.215V88.0128H376.543V95.2188H374.72V88.0128H372.048ZM394.196 95.2188V86.4915H400.076V88.0128H396.041V90.0923H399.774V91.6136H396.041V93.6974H400.093V95.2188H394.196ZM418.437 95.2188H415.343V86.4915H418.463C419.34 86.4915 420.096 86.6662 420.73 87.0156C421.363 87.3622 421.85 87.8608 422.191 88.5114C422.535 89.1619 422.707 89.9403 422.707 90.8466C422.707 91.7557 422.535 92.5369 422.191 93.1903C421.85 93.8437 421.36 94.3452 420.721 94.6946C420.085 95.044 419.323 95.2188 418.437 95.2188ZM417.188 93.6378H418.36C418.906 93.6378 419.365 93.5412 419.737 93.348C420.112 93.152 420.393 92.8494 420.581 92.4403C420.771 92.0284 420.866 91.4972 420.866 90.8466C420.866 90.2017 420.771 89.6747 420.581 89.2656C420.393 88.8565 420.113 88.5554 419.741 88.3622C419.369 88.169 418.91 88.0724 418.365 88.0724H417.188V93.6378Z" fill="#FFCB01"></path></svg>